<mxfile host="Electron" modified="2023-05-01T03:09:16.024Z" agent="Mozilla/5.0 (Windows NT 10.0; Win64; x64) AppleWebKit/537.36 (KHTML, like Gecko) draw.io/21.1.2 Chrome/106.0.5249.199 Electron/21.4.3 Safari/537.36" etag="W2Mg5Sw8uq291YgLGi5u" version="21.1.2" type="device">
  <diagram name="PÃ¡gina-1" id="ODOjQq7_-SBzFVzUgtSe">
    <mxGraphModel dx="2245" dy="828" grid="1" gridSize="10" guides="1" tooltips="1" connect="1" arrows="1" fold="1" page="1" pageScale="1" pageWidth="827" pageHeight="1169" math="0" shadow="0">
      <root>
        <mxCell id="0" />
        <mxCell id="1" parent="0" />
        <mxCell id="f-XYyLIuz6JJ-cM99IqU-88" value="&lt;font style=&quot;font-size: 27px;&quot;&gt;MongoDB&lt;/font&gt;" style="shape=mxgraph.cisco.storage.relational_database;sketch=0;html=1;pointerEvents=1;dashed=0;fillColor=#036897;strokeColor=#ffffff;strokeWidth=2;verticalLabelPosition=bottom;verticalAlign=top;align=center;outlineConnect=0;" vertex="1" parent="1">
          <mxGeometry x="340" y="490" width="160" height="110" as="geometry" />
        </mxCell>
        <mxCell id="f-XYyLIuz6JJ-cM99IqU-90" value="&lt;div style=&quot;text-align: justify;&quot;&gt;&lt;span style=&quot;font-size: 23px; background-color: initial;&quot;&gt;API_REST&lt;/span&gt;&lt;/div&gt;" style="verticalAlign=top;align=left;spacingTop=8;spacingLeft=2;spacingRight=12;shape=cube;size=10;direction=south;fontStyle=4;html=1;whiteSpace=wrap;" vertex="1" parent="1">
          <mxGeometry x="140" y="270" width="180" height="120" as="geometry" />
        </mxCell>
        <mxCell id="f-XYyLIuz6JJ-cM99IqU-91" value="&lt;div style=&quot;text-align: justify;&quot;&gt;&lt;span style=&quot;font-size: 23px; background-color: initial;&quot;&gt;API_GRAPHQL&lt;/span&gt;&lt;/div&gt;" style="verticalAlign=top;align=left;spacingTop=8;spacingLeft=2;spacingRight=12;shape=cube;size=10;direction=south;fontStyle=4;html=1;whiteSpace=wrap;" vertex="1" parent="1">
          <mxGeometry x="535" y="270" width="180" height="120" as="geometry" />
        </mxCell>
        <mxCell id="f-XYyLIuz6JJ-cM99IqU-92" value="&lt;div style=&quot;&quot;&gt;&lt;span style=&quot;font-size: 23px; background-color: initial;&quot;&gt;Cliente-Interfaz&lt;/span&gt;&lt;/div&gt;" style="verticalAlign=top;align=center;spacingTop=8;spacingLeft=2;spacingRight=12;shape=cube;size=10;direction=south;fontStyle=4;html=1;whiteSpace=wrap;" vertex="1" parent="1">
          <mxGeometry x="109" y="80" width="610" height="50" as="geometry" />
        </mxCell>
        <mxCell id="f-XYyLIuz6JJ-cM99IqU-93" value="" style="endArrow=classic;html=1;rounded=0;entryX=0;entryY=0;entryDx=0;entryDy=85;entryPerimeter=0;" edge="1" parent="1" target="f-XYyLIuz6JJ-cM99IqU-90">
          <mxGeometry width="50" height="50" relative="1" as="geometry">
            <mxPoint x="235" y="130" as="sourcePoint" />
            <mxPoint x="110" y="230" as="targetPoint" />
          </mxGeometry>
        </mxCell>
        <mxCell id="f-XYyLIuz6JJ-cM99IqU-94" value="" style="endArrow=classic;html=1;rounded=0;entryX=0;entryY=0;entryDx=0;entryDy=85;entryPerimeter=0;" edge="1" parent="1" target="f-XYyLIuz6JJ-cM99IqU-91">
          <mxGeometry width="50" height="50" relative="1" as="geometry">
            <mxPoint x="630" y="130" as="sourcePoint" />
            <mxPoint x="630" y="270" as="targetPoint" />
          </mxGeometry>
        </mxCell>
        <mxCell id="f-XYyLIuz6JJ-cM99IqU-95" value="" style="endArrow=classic;html=1;rounded=0;entryX=0.5;entryY=0;entryDx=0;entryDy=0;entryPerimeter=0;exitX=0;exitY=0;exitDx=120;exitDy=95;exitPerimeter=0;" edge="1" parent="1" source="f-XYyLIuz6JJ-cM99IqU-90" target="f-XYyLIuz6JJ-cM99IqU-88">
          <mxGeometry width="50" height="50" relative="1" as="geometry">
            <mxPoint x="230" y="400" as="sourcePoint" />
            <mxPoint x="229.5" y="550" as="targetPoint" />
            <Array as="points">
              <mxPoint x="420" y="390" />
            </Array>
          </mxGeometry>
        </mxCell>
        <mxCell id="f-XYyLIuz6JJ-cM99IqU-96" value="" style="endArrow=classic;html=1;rounded=0;exitX=0;exitY=0;exitDx=120;exitDy=95;exitPerimeter=0;" edge="1" parent="1" source="f-XYyLIuz6JJ-cM99IqU-91">
          <mxGeometry width="50" height="50" relative="1" as="geometry">
            <mxPoint x="490" y="430" as="sourcePoint" />
            <mxPoint x="420" y="480" as="targetPoint" />
            <Array as="points">
              <mxPoint x="420" y="390" />
            </Array>
          </mxGeometry>
        </mxCell>
        <mxCell id="f-XYyLIuz6JJ-cM99IqU-97" value="&lt;font style=&quot;font-size: 14px;&quot;&gt;Solicita y muestra la informacion que el cliente dese obtener&lt;/font&gt;" style="rounded=0;whiteSpace=wrap;html=1;" vertex="1" parent="1">
          <mxGeometry x="780" y="70" width="160" height="80" as="geometry" />
        </mxCell>
        <mxCell id="f-XYyLIuz6JJ-cM99IqU-98" value="&lt;font style=&quot;font-size: 14px;&quot;&gt;Obtiene la informacion mediante consultas POST a la base de datos&lt;/font&gt;" style="rounded=0;whiteSpace=wrap;html=1;" vertex="1" parent="1">
          <mxGeometry x="760" y="290" width="160" height="80" as="geometry" />
        </mxCell>
        <mxCell id="f-XYyLIuz6JJ-cM99IqU-99" value="&lt;font style=&quot;font-size: 14px;&quot;&gt;Modifica,elimina y inserta informacion a la base de datos mediante PUT,DELETE O POST&lt;/font&gt;" style="rounded=0;whiteSpace=wrap;html=1;" vertex="1" parent="1">
          <mxGeometry x="-80" y="300" width="170" height="80" as="geometry" />
        </mxCell>
        <mxCell id="f-XYyLIuz6JJ-cM99IqU-100" value="&lt;font style=&quot;font-size: 14px;&quot;&gt;Provee la informacion que el cliente solicita y es necesaria para su funcionamiento&lt;/font&gt;" style="rounded=0;whiteSpace=wrap;html=1;" vertex="1" parent="1">
          <mxGeometry x="559" y="505" width="160" height="80" as="geometry" />
        </mxCell>
      </root>
    </mxGraphModel>
  </diagram>
</mxfile>
